<?xml version="1.0" encoding="utf-8"?>
<!-- Generator: Adobe Illustrator 18.0.0, SVG Export Plug-In . SVG Version: 6.00 Build 0)  -->
<!DOCTYPE svg PUBLIC "-//W3C//DTD SVG 1.1//EN" "http://www.w3.org/Graphics/SVG/1.1/DTD/svg11.dtd">
<svg version="1.1" id="Layer_1" xmlns="http://www.w3.org/2000/svg" xmlns:xlink="http://www.w3.org/1999/xlink" x="0px" y="0px"
	 viewBox="0 0 307 55" enable-background="new 0 0 307 55" xml:space="preserve">
<g>
	<g>
		<path fill="#BE0A2F" d="M59.6,6l-4.9,14.7h-6.1l2.7-8.1H40.4l-2.7,8.1h-6.1L36.5,6c0.7-2,1.7-3.5,3.2-4.5s3.5-1.5,6-1.5h8.8
			c2.5,0,4.2,0.5,5,1.5C60.2,2.5,60.2,4,59.6,6z M42,7.9h10.8c0.2-0.5,0.3-1,0.3-1.4s0-0.7-0.2-1S52.4,5,52,4.9s-1-0.2-1.7-0.2h-3.9
			c-1.4,0-2.5,0.3-3.1,0.8C42.8,6,42.3,6.8,42,7.9z"/>
		<path fill="#BE0A2F" d="M63.8,20.7h-6.1l5-14.7c0.7-2,1.7-3.5,3.2-4.5s3.5-1.5,6-1.5h15.2c2.5,0,4.2,0.5,5,1.5
			c0.7,1,0.8,2.5,0.1,4.5l-4.9,14.7h-6.1l4.3-12.8c0.2-0.5,0.3-1,0.3-1.4s0-0.7-0.2-1S85.1,5,84.7,4.9c-0.4-0.1-1-0.2-1.7-0.2h-2.2
			l-5.3,15.9h-6.1l5.3-15.9h-2.1c-1.4,0-2.4,0.3-3,0.8C69,6,68.5,6.8,68.2,7.9L63.8,20.7z"/>
		<path fill="#BE0A2F" d="M114.1,20.7H98.2c-2.5,0-4.2-0.5-5-1.5s-0.8-2.5-0.2-4.5L96,6c0.7-2,1.7-3.5,3.2-4.5s3.5-1.5,6-1.5h15.9
			l-1.6,4.7H106c-1.4,0-2.5,0.3-3.1,0.8c-0.6,0.5-1.1,1.3-1.4,2.4l0,0h17l-1.6,4.7h-17l-0.1,0.2c-0.2,0.5-0.3,1-0.3,1.4s0,0.7,0.2,1
			s0.4,0.5,0.9,0.6c0.4,0.1,1,0.2,1.7,0.2h13.5L114.1,20.7z"/>
		<path fill="#BE0A2F" d="M136.4,13.5l4.2,7.2h-6.8l-4.3-7.1h-3.7l-2.4,7.1h-6.2L124.1,0H140c2.5,0,4.2,0.5,5,1.5s0.8,2.5,0.2,4.5
			l-0.5,1.6c-0.6,1.9-1.6,3.4-2.9,4.3C140.5,12.9,138.7,13.4,136.4,13.5z M136.4,4.7h-7.8l-1.4,4.1h7.8c0.6,0,1.1,0,1.5-0.1
			s0.8-0.2,1-0.3c0.3-0.2,0.5-0.4,0.7-0.6c0.2-0.3,0.3-0.6,0.5-1c0.2-0.5,0.3-0.8,0.3-1.1c0-0.3-0.1-0.5-0.2-0.6
			c-0.2-0.1-0.5-0.2-0.9-0.3C137.6,4.8,137.1,4.7,136.4,4.7z"/>
		<path fill="#BE0A2F" d="M149.4,20.7h-6.1L150.2,0h6.1L149.4,20.7z"/>
		<path fill="#BE0A2F" d="M178.2,12.9l-0.6,1.9c-0.7,2-1.7,3.5-3.2,4.5s-3.5,1.5-6,1.5h-8.8c-2.5,0-4.2-0.5-5-1.5s-0.8-2.5-0.2-4.5
			l2.9-8.8c0.7-2,1.7-3.5,3.2-4.5s3.5-1.5,6-1.5h8.8c2.5,0,4.2,0.5,5,1.5s0.8,2.5,0.2,4.5l-0.6,1.9h-6.1c0.2-0.5,0.3-1,0.3-1.4
			s0-0.7-0.2-1c-0.2-0.2-0.5-0.4-0.9-0.6c-0.4-0.1-1-0.2-1.7-0.2h-3.9c-1.4,0-2.5,0.3-3.1,0.8s-1.1,1.3-1.4,2.4l-1.7,4.9
			c-0.2,0.5-0.3,1-0.3,1.4s0,0.7,0.2,1s0.4,0.5,0.9,0.6c0.4,0.1,1,0.2,1.7,0.2h3.9c0.7,0,1.3-0.1,1.8-0.2c0.5-0.1,0.9-0.3,1.3-0.6
			c0.3-0.2,0.6-0.6,0.9-1c0.2-0.4,0.4-0.9,0.6-1.4h6V12.9z"/>
		<path fill="#BE0A2F" d="M205.9,6L201,20.7h-6.1l2.7-8.1h-10.8l-2.7,8.1H178L182.9,6c0.7-2,1.7-3.5,3.2-4.5s3.5-1.5,6-1.5h8.8
			c2.5,0,4.2,0.5,5,1.5C206.5,2.5,206.6,4,205.9,6z M188.4,7.9h10.8c0.2-0.5,0.3-1,0.3-1.4s0-0.7-0.2-1s-0.5-0.5-0.9-0.6
			s-1-0.2-1.7-0.2h-3.9c-1.4,0-2.5,0.3-3.1,0.8C189.2,6,188.7,6.8,188.4,7.9z"/>
		<path fill="#BE0A2F" d="M234.1,0l-6.9,20.7h-5.5l-7.5-11.9l-4,11.9h-6.1L211,0h5.5l7.5,11.8L228,0H234.1z"/>
	</g>
</g>
<g>
	<g>
		<g>
			<path fill="#002768" d="M102.3,52.5H86.1c-2.6,0-4.3-0.5-5.1-1.5c-0.8-1-0.9-2.5-0.2-4.5l3-8.8c0.7-2,1.8-3.5,3.3-4.5
				s3.5-1.5,6.1-1.5h16.2l-1.6,4.7H94c-1.5,0-2.5,0.3-3.2,0.8c-0.6,0.5-1.1,1.3-1.5,2.4l0,0h17.3l-1.6,4.7H87.8l-0.1,0.2
				c-0.2,0.5-0.3,1-0.4,1.4c0,0.4,0,0.7,0.2,1s0.5,0.5,0.9,0.6c0.4,0.1,1,0.2,1.8,0.2h13.7L102.3,52.5z"/>
			<path fill="#002768" d="M121.6,52.5l-2.7-5.8l-6.7,5.8h-7.1l11.8-10.3l-4.7-10.4h7l2.7,5.9l6.7-5.9h7l-11.8,10.4l4.7,10.3H121.6z
				"/>
			<path fill="#002768" d="M159.4,39.4c-0.7,2-1.8,3.5-3.3,4.5s-3.5,1.5-6.1,1.5h-10l-2.4,7.2h-6.2l7.1-20.6h16.2
				c2.6,0,4.3,0.5,5.1,1.5s0.9,2.5,0.2,4.5L159.4,39.4z M143.1,36.5l-1.4,4.1h7.9c0.6,0,1.1,0,1.6-0.1c0.4-0.1,0.8-0.2,1.1-0.3
				c0.3-0.2,0.5-0.4,0.7-0.6c0.2-0.3,0.3-0.6,0.5-1c0.2-0.5,0.3-0.8,0.3-1.1s-0.1-0.5-0.2-0.6c-0.2-0.1-0.5-0.2-0.9-0.3
				c-0.4,0-0.9-0.1-1.6-0.1L143.1,36.5z"/>
			<path fill="#002768" d="M177.6,45.3l4.3,7.2H175l-4.4-7.1h-3.8l-2.4,7.1h-6.2l7.1-20.6h16.2c2.6,0,4.3,0.5,5.1,1.5
				s0.9,2.5,0.2,4.5l-0.5,1.6c-0.7,1.9-1.6,3.4-3,4.3S180,45.2,177.6,45.3z M177.7,36.5h-7.9l-1.4,4.1h7.9c0.6,0,1.1,0,1.6-0.1
				c0.4-0.1,0.8-0.2,1.1-0.3c0.3-0.2,0.5-0.4,0.7-0.6c0.2-0.3,0.3-0.6,0.5-1c0.2-0.5,0.3-0.8,0.3-1.1s-0.1-0.5-0.2-0.6
				c-0.2-0.1-0.5-0.2-0.9-0.3C178.9,36.6,178.4,36.5,177.7,36.5z"/>
			<path fill="#002768" d="M208.2,52.5H192c-2.6,0-4.3-0.5-5.1-1.5s-0.9-2.5-0.2-4.5l3-8.8c0.7-2,1.8-3.5,3.3-4.5s3.5-1.5,6.1-1.5
				h16.2l-1.6,4.7H200c-1.5,0-2.5,0.3-3.2,0.8c-0.6,0.5-1.1,1.3-1.5,2.4l0,0h17.3l-1.6,4.7h-17.3l-0.1,0.2c-0.2,0.5-0.3,1-0.4,1.4
				c0,0.4,0,0.7,0.2,1s0.5,0.5,0.9,0.6s1,0.2,1.8,0.2h13.7L208.2,52.5z"/>
			<path fill="#002768" d="M236.5,48.7c-0.7,1.1-1.6,2.1-2.7,2.8c-1.1,0.7-2.3,1.1-3.6,1.1h-18.8l1.6-4.7h14.9
				c0.5,0,0.8-0.2,0.9-0.5c0.1-0.2,0.1-0.3,0-0.4c-0.1-0.1-0.2-0.1-0.2-0.2l-10.6-6c-0.7-0.4-1.1-1-1.2-1.9c-0.1-0.8,0-1.7,0.3-2.7
				c0.1-0.3,0.2-0.5,0.2-0.6c0.7-1.1,1.6-2.1,2.7-2.8c1.1-0.7,2.3-1.1,3.6-1.1h18.8l-1.6,4.7h-14.9c-0.2,0-0.4,0-0.5,0.1
				c-0.2,0.1-0.3,0.2-0.3,0.3l0,0c0,0.1,0.1,0.3,0.1,0.4c0.1,0.1,0.1,0.2,0.2,0.2l10.6,6c0.2,0.1,0.5,0.3,0.7,0.6s0.4,0.6,0.5,0.9
				c0.1,0.4,0.1,0.8,0.1,1.3s-0.1,1-0.4,1.6C236.6,48.4,236.5,48.6,236.5,48.7z"/>
			<path fill="#002768" d="M263.5,48.7c-0.7,1.1-1.6,2.1-2.7,2.8s-2.3,1.1-3.6,1.1h-18.8l1.6-4.7h14.9c0.5,0,0.8-0.2,0.9-0.5
				c0.1-0.2,0.1-0.3,0-0.4c-0.1-0.1-0.2-0.1-0.2-0.2l-10.6-6c-0.7-0.4-1.1-1-1.2-1.9c-0.1-0.8,0-1.7,0.3-2.7
				c0.1-0.3,0.2-0.5,0.2-0.6c0.7-1.1,1.6-2.1,2.7-2.8c1.1-0.7,2.3-1.1,3.6-1.1h18.8l-1.6,4.7h-14.9c-0.2,0-0.4,0-0.5,0.1
				c-0.2,0.1-0.3,0.2-0.3,0.3l0,0c0,0.1,0.1,0.3,0.1,0.4c0.1,0.1,0.1,0.2,0.2,0.2l10.6,6c0.2,0.1,0.5,0.3,0.7,0.6s0.4,0.6,0.5,0.9
				c0.1,0.4,0.1,0.8,0.1,1.3s-0.1,1-0.4,1.6C263.6,48.4,263.5,48.6,263.5,48.7z"/>
		</g>
	</g>
</g>
<linearGradient id="SVGID_1_" gradientUnits="userSpaceOnUse" x1="240.0347" y1="10.4" x2="302.6346" y2="10.4">
	<stop  offset="0" style="stop-color:#FFEBB6"/>
	<stop  offset="0.4769" style="stop-color:#FFC059"/>
	<stop  offset="1" style="stop-color:#C1974C"/>
</linearGradient>
<path fill="url(#SVGID_1_)" d="M240,20.7v-8.3c0-0.7,0.5-1.3,1.2-1.3c2-0.2,6.2-0.8,9.4-3c5.2-3.5,6.9-6.2,7.5-7.4
	c0.2-0.4,0.6-0.6,1-0.6h43.5c-1.9,3.7-30.4,4.8-41.3,4.6l-0.1,0.2h37C295,8.5,263,9.3,253.5,9.5l-0.1,0.3h32.9
	c-3.8,2.9-32.5,3.3-38.8,3.5l2.7,0.1l25.9-0.1c-5.6,3.8-32.7,4-32.7,4s-0.1,0.8-1.4,2C240.9,20.6,240,20.7,240,20.7z"/>
<linearGradient id="SVGID_2_" gradientUnits="userSpaceOnUse" x1="69.1347" y1="43.35" x2="2.8346" y2="43.35">
	<stop  offset="0" style="stop-color:#FFEBB6"/>
	<stop  offset="0.4769" style="stop-color:#FFC059"/>
	<stop  offset="1" style="stop-color:#C1974C"/>
</linearGradient>
<path fill="url(#SVGID_2_)" d="M69.1,55v-9.4c0-0.8-0.6-1.4-1.3-1.5c-2.1-0.2-6.6-0.9-10-3.4c-5.5-3.9-7.3-7-7.9-8.3
	c-0.2-0.4-0.6-0.7-1.1-0.7h-46c2,4.2,32.2,5.4,43.8,5.2l0.1,0.3H7.5c3.4,4.1,37.3,4.9,47.4,5.2l0.1,0.4H20.1c4,3.3,31.5,3.7,38.2,4
	l0.1,0.1L31,46.8c5.9,4.3,34.6,4.5,34.6,4.5s0.1,0.9,1.4,2.3C68.2,54.9,69.1,55,69.1,55z"/>
</svg>
